<svg width="20" height="20" viewBox="0 0 20 20" fill="none" xmlns="http://www.w3.org/2000/svg">
<path d="M7.38313 1.24948C7.44886 1.28885 7.5062 1.34078 7.55186 1.40231C7.59753 1.46383 7.63062 1.53376 7.64926 1.60808C7.66789 1.6824 7.6717 1.75966 7.66047 1.83546C7.64924 1.91125 7.62318 1.98409 7.58379 2.04981L4.61346 6.99998H15.3865L12.415 2.04981C12.3354 1.91707 12.3119 1.75818 12.3495 1.60809C12.3872 1.458 12.4829 1.329 12.6156 1.24948C12.7484 1.16996 12.9073 1.14643 13.0574 1.18406C13.2074 1.22169 13.3364 1.31741 13.416 1.45015L16.7468 6.99998H18.1666C18.476 6.99998 18.7728 7.1229 18.9916 7.34169C19.2104 7.56048 19.3333 7.85723 19.3333 8.16665V9.33332C19.3333 9.64274 19.2104 9.93948 18.9916 10.1583C18.7728 10.3771 18.476 10.5 18.1666 10.5V15.75C18.1666 16.5235 17.8593 17.2654 17.3124 17.8124C16.7654 18.3594 16.0235 18.6666 15.25 18.6666H4.74996C3.97641 18.6666 3.23455 18.3594 2.68756 17.8124C2.14058 17.2654 1.83329 16.5235 1.83329 15.75V10.5C1.52387 10.5 1.22713 10.3771 1.00833 10.1583C0.789542 9.93948 0.666626 9.64274 0.666626 9.33332V8.16665C0.666626 7.85723 0.789542 7.56048 1.00833 7.34169C1.22713 7.1229 1.52387 6.99998 1.83329 6.99998H3.25313L6.58163 1.45015C6.62099 1.38441 6.67292 1.32707 6.73445 1.28141C6.79598 1.23575 6.8659 1.20265 6.94022 1.18402C7.01454 1.16538 7.09181 1.16157 7.1676 1.17281C7.2434 1.18404 7.31624 1.21009 7.38196 1.24948H7.38313ZM2.99996 10.5V15.75C2.99996 16.2141 3.18433 16.6592 3.51252 16.9874C3.84071 17.3156 4.28583 17.5 4.74996 17.5H15.25C15.7141 17.5 16.1592 17.3156 16.4874 16.9874C16.8156 16.6592 17 16.2141 17 15.75V10.5H2.99996ZM1.83329 8.16665V9.33332H18.1666V8.16665H1.83329Z" fill="#9C9C9C"/>
</svg>
