<svg width="24" height="20" viewBox="0 0 24 20" fill="none" xmlns="http://www.w3.org/2000/svg">
<path d="M20.84 2.61002C20.3292 2.09903 19.7228 1.69367 19.0554 1.41711C18.3879 1.14055 17.6725 0.998199 16.95 0.998199C16.2275 0.998199 15.5121 1.14055 14.8446 1.41711C14.1772 1.69367 13.5708 2.09903 13.06 2.61002L12 3.67002L10.94 2.61002C9.9083 1.57833 8.50903 0.998734 7.05 0.998734C5.59096 0.998734 4.19169 1.57833 3.16 2.61002C2.1283 3.64172 1.54871 5.04099 1.54871 6.50002C1.54871 7.95906 2.1283 9.35833 3.16 10.39L4.22 11.45L12 19.23L19.78 11.45L20.84 10.39C21.351 9.87927 21.7563 9.27284 22.0329 8.60538C22.3095 7.93792 22.4518 7.22251 22.4518 6.50002C22.4518 5.77754 22.3095 5.06213 22.0329 4.39467C21.7563 3.72721 21.351 3.12078 20.84 2.61002V2.61002Z" stroke="#333333" stroke-width="1.5" stroke-linecap="round" stroke-linejoin="round"/>
</svg>
