<svg width="24" height="22" viewBox="0 0 24 22" fill="none" xmlns="http://www.w3.org/2000/svg">
<path d="M8.85985 0.499384C8.93873 0.546621 9.00754 0.608937 9.06234 0.682772C9.11713 0.756607 9.15684 0.840514 9.1792 0.9297C9.20157 1.01889 9.20614 1.1116 9.19266 1.20256C9.17918 1.29351 9.14792 1.38092 9.10065 1.45978L5.53625 7.39998H18.4639L14.898 1.45978C14.8026 1.30049 14.7744 1.10982 14.8195 0.929712C14.8647 0.749602 14.9796 0.594809 15.1388 0.499384C15.2981 0.403959 15.4888 0.37572 15.6689 0.420878C15.849 0.466037 16.0038 0.580895 16.0992 0.740184L20.0963 7.39998H21.8C22.1714 7.39998 22.5274 7.54748 22.79 7.81003C23.0525 8.07259 23.2 8.42868 23.2 8.79998V10.2C23.2 10.5713 23.0525 10.9274 22.79 11.1899C22.5274 11.4525 22.1714 11.6 21.8 11.6V17.9C21.8 18.8282 21.4313 19.7185 20.7749 20.3749C20.1185 21.0312 19.2283 21.4 18.3 21.4H5.70005C4.77179 21.4 3.88155 21.0312 3.22518 20.3749C2.5688 19.7185 2.20005 18.8282 2.20005 17.9V11.6C1.82875 11.6 1.47265 11.4525 1.2101 11.1899C0.947548 10.9274 0.800049 10.5713 0.800049 10.2V8.79998C0.800049 8.42868 0.947548 8.07259 1.2101 7.81003C1.47265 7.54748 1.82875 7.39998 2.20005 7.39998H3.90385L7.89805 0.740184C7.94529 0.661299 8.0076 0.592494 8.08144 0.537698C8.15527 0.482902 8.23918 0.443189 8.32836 0.420828C8.41755 0.398466 8.51027 0.393894 8.60122 0.407373C8.69217 0.420852 8.77958 0.452117 8.85845 0.499384H8.85985ZM3.60005 11.6V17.9C3.60005 18.4569 3.8213 18.9911 4.21512 19.3849C4.60895 19.7787 5.14309 20 5.70005 20H18.3C18.857 20 19.3911 19.7787 19.785 19.3849C20.1788 18.9911 20.4 18.4569 20.4 17.9V11.6H3.60005ZM2.20005 8.79998V10.2H21.8V8.79998H2.20005Z" fill="#333333"/>
</svg>
